<svg x="0" y="0" width="48" height="48" version="1.1" xmlns="http://www.w3.org/2000/svg" xmlns:xlink="http://www.w3.org/1999/xlink"><defs><linearGradient x1="14.82948" y1="14.24427" x2="49.98162" y2="50.56683" gradientUnits="userSpaceOnUse" id="color-1"><stop offset="0" stop-color="#000000" stop-opacity="0.48"></stop><stop offset="1" stop-color="#000000" stop-opacity="0"></stop></linearGradient><filter id="dropshadow"><feColorMatrix type="matrix" values="0 0 0 0 .05  0 0 0 0 .15  0 0 0 0 .1  0 0 0 .8 0"></feColorMatrix> <feOffset dx="0" dy="1"></feOffset> <feGaussianBlur stdDeviation="1"></feGaussianBlur> <feComposite in="SourceGraphic"></feComposite></filter></defs><g fill="none" stroke="none" stroke-width="none" stroke-linecap="butt" stroke-linejoin="miter" stroke-miterlimit="none" stroke-dasharray="" stroke-dashoffset="0" font-family="none" font-weight="normal" font-size="none" text-anchor="start" mix-blend-mode="normal"><g id="Capa_1" fill="#000000" stroke="none" stroke-width="1" stroke-miterlimit="4" font-family="&quot;Open Sans&quot;, sans-serif" font-size="14"><g></g><g></g><g></g><g></g><g></g><g></g><g></g><g></g><g></g><g></g><g></g><g></g><g></g><g></g><g></g></g><path d="M5,45c-1.10457,0 -2,-0.89543 -2,-2l0,-38c0,-1.10457 0.89543,-2 2,-2l38,0c1.10457,0 2,0.89543 2,2l0,38c0,1.10457 -0.89543,2 -2,2z" fill-opacity="0.74" fill="#f71919" stroke-width="1" stroke-miterlimit="10" font-family="sans-serif" font-size="12" filter="url(#dropshadow)"></path><path d="M20.46732,14.75175c1.20056,-0.45845 3.4348,-0.5056 3.52927,-0.50748c0.10139,0.00189 2.33554,0.04903 3.53602,0.5074c0,0 0,0 0,0c0.16175,0.06181 0.31765,0.14592 0.46735,0.24749c0.00701,0.00414 0.01368,0.00881 0.02015,0.01377c0.16436,0.11361 0.32099,0.24794 0.46908,0.39604l0.00484,0.00484c-0.00161,-0.00162 -0.00322,-0.00323 -0.00483,-0.00484l16.51081,16.51081l0,11.08024c0,1.10457 -0.89543,2 -2,2l-13.45368,0l-14.33772,-14.33772c-0.23412,-0.23412 -0.37912,-0.55734 -0.37912,-0.9138l0,-6.88661c0,0 0.35994,0.35994 0.35994,0.35994l0,-0.00001l-0.35994,-0.35994c0,-0.32882 0.26755,-0.59645 0.59637,-0.59645l0.06423,0l0,-1.23291c0,0 -0.20612,-0.20612 -0.20612,-0.20612c-0.09888,-0.09888 -0.16011,-0.23538 -0.16011,-0.38588c0,-0.3012 0.24497,-0.54617 0.54617,-0.54617l0.00001,0.00001c0.15058,0 0.28711,0.06126 0.38599,0.16014l0.00176,0.00176c-0.00058,-0.00059 -0.00117,-0.00118 -0.00175,-0.00176l0.87651,0.87651c0.16449,-0.5378 0.37511,-0.78118 0.48564,-0.87823l0.25548,0.25548c0,0 0,0 0,0l-0.25547,-0.25547c0.06315,-0.28689 0.32414,-1.44454 0.57379,-2.15507l-0.00001,-0.00001c0.21609,-0.61499 0.94714,-2.1656 1.9881,-2.88486l0.26292,0.26292l0,-0.00001l-0.26291,-0.26291c0.00621,-0.00495 0.01269,-0.00936 0.01952,-0.0134c0.14979,-0.10157 0.30587,-0.18586 0.46772,-0.24767l0.44061,0.44061l0,-0.00001z" fill="url(#color-1)" stroke-width="1" stroke-miterlimit="10" font-family="sans-serif" font-size="12"></path><path d="M24,33.75573c-0.0036,0 -0.0072,-0.00009 -0.0108,-0.00036c-0.04489,-0.00261 -1.11141,-0.06972 -2.13357,-0.39593c-1.14344,-0.36498 -2.59599,-0.92707 -3.02232,-1.53271c-0.0574,-0.0816 -0.15258,-0.25172 -0.32315,-0.78529l-2.38763,0c-0.71296,0 -1.29305,-0.57999 -1.29305,-1.29296l0,-6.88662c0,-0.32882 0.26755,-0.59646 0.59637,-0.59646l0.06423,0l0,-1.30933c-0.21303,-0.07449 -0.36624,-0.27754 -0.36624,-0.51558c0,-0.3012 0.24497,-0.54617 0.54617,-0.54617c0.3012,0 0.54617,0.24506 0.54617,0.54617c0,0.23804 -0.15321,0.44109 -0.36624,0.51567l0,1.30924l0.06423,0c0.32882,0 0.59637,0.26764 0.59637,0.59646l0,6.46999c0,0.24533 0.19954,0.44478 0.44487,0.44478l1.1966,0c-0.27637,-1.06391 -0.53717,-2.23109 -0.62786,-2.64367c-0.00081,-0.00315 -0.00153,-0.00639 -0.00216,-0.00963c-0.01583,-0.07224 -0.02618,-0.11965 -0.02996,-0.13728l-0.50712,-1.65146c-0.01646,-0.05776 -0.37452,-1.34594 -0.26611,-3.1014c0.09248,-1.49897 0.52314,-2.02571 0.69938,-2.18045c0.06315,-0.28689 0.32414,-1.44454 0.57379,-2.15508c0.21609,-0.61499 0.94714,-2.1656 1.9881,-2.88486c0.00621,-0.00495 0.01268,-0.00936 0.01952,-0.0134c0.14979,-0.10157 0.30588,-0.18586 0.46772,-0.24767c1.20056,-0.45845 3.43481,-0.50559 3.52927,-0.50748c0.10139,0.00189 2.33554,0.04903 3.53601,0.50739c0.16175,0.0618 0.31766,0.14592 0.46736,0.24749c0.00702,0.00414 0.01367,0.00882 0.02015,0.01376c1.04079,0.71944 1.77165,2.26969 1.98774,2.88468c0.24974,0.71053 0.51072,1.86818 0.57388,2.15508c0.17624,0.15474 0.60689,0.68138 0.69938,2.18045c0.10832,1.75546 -0.24965,3.04364 -0.26503,3.09762l-0.5082,1.65524c-0.00378,0.01763 -0.01412,0.06522 -0.02996,0.13728c-0.00063,0.00324 -0.00135,0.00648 -0.00207,0.00963c-0.09086,0.41284 -0.35185,1.5812 -0.62795,2.64367l1.1966,0c0.24533,0 0.44487,-0.19954 0.44487,-0.44478l0,-6.4699c0,-0.32882 0.26755,-0.59646 0.59637,-0.59646l0.06432,0l0,-1.30924c-0.21303,-0.07458 -0.36624,-0.27763 -0.36624,-0.51567c0,-0.3012 0.24506,-0.54617 0.54617,-0.54617c0.30111,0 0.54608,0.24506 0.54608,0.54617c0,0.23804 -0.15312,0.44109 -0.36615,0.51558l0,1.30933l0.06423,0c0.32882,0 0.59637,0.26764 0.59637,0.59646l0,6.88653c0,0.71296 -0.57999,1.29296 -1.29296,1.29296l-2.38781,0c-0.17084,0.53438 -0.26575,0.70387 -0.32306,0.78529c-0.42625,0.60563 -1.8788,1.16782 -3.02223,1.53271c-1.02226,0.32621 -2.08868,0.39332 -2.13357,0.39593c-0.00369,0.00036 -0.00729,0.00045 -0.01089,0.00045z M24.17993,24.67707c0.33673,0.03599 1.08973,0.16769 1.67197,0.64513c0.31532,0.25865 0.62417,0.72115 0.92294,1.16827c0.37281,0.55813 0.79528,1.19067 1.11033,1.20389c0.50452,0.0206 1.73117,-0.48904 2.25916,-0.73032c0.00837,-0.03832 0.01304,-0.05956 0.01331,-0.06136c0.00108,-0.00504 0.00234,-0.00999 0.00387,-0.01493l0.50937,-1.65875c0.00243,-0.00891 0.35536,-1.28297 0.251,-2.97365c-0.09833,-1.59253 -0.59394,-1.94564 -0.59889,-1.94897c-0.04264,-0.02564 -0.06873,-0.06522 -0.07917,-0.11389c-0.00297,-0.01385 -0.30246,-1.39857 -0.5755,-2.17559c-0.23094,-0.65736 -0.75533,-1.66468 -1.41396,-2.33257l1.09908,3.68643c0.00675,0.02285 0.009,0.04687 0.00639,0.07053l-0.08295,0.77333c0.66672,0.40861 0.9878,1.10448 0.9564,2.07852c-0.03949,1.22674 -0.3747,1.80836 -1.08676,1.88572c-0.58062,0.06162 -2.28633,-0.66816 -3.31425,-1.42322c-0.16346,-0.1201 -0.30345,-0.2223 -0.42391,-0.31019c-0.66339,-0.48409 -0.76541,-0.55849 -0.91781,-0.82191c-0.06288,-0.10868 -0.09473,-0.24434 -0.09446,-0.40304c0.00045,-0.31739 0.2089,-0.59871 0.51873,-0.69983c0.86077,-0.28078 2.33671,-0.70756 3.2359,-0.66618l0.08223,-0.61301l-1.20425,-4.27408c-1.19615,-0.32477 -3.0118,-0.36291 -3.03213,-0.36327c-0.01412,0.00036 -1.8295,0.03877 -3.02529,0.36336l-1.20425,4.27381l0.08232,0.61301c0.89712,-0.04165 2.37504,0.3854 3.23581,0.66618c0.30983,0.10112 0.51828,0.38243 0.51882,0.69983c0.00027,0.15879 -0.03149,0.29436 -0.09437,0.40304c-0.15249,0.26341 -0.25451,0.33781 -0.91781,0.82191c-0.12046,0.08798 -0.26053,0.19009 -0.42391,0.3101c-1.02792,0.75524 -2.73165,1.4853 -3.31434,1.42331c-0.71197,-0.07737 -1.04718,-0.65898 -1.08676,-1.88572c-0.0314,-0.97403 0.28959,-1.6699 0.95631,-2.07852l-0.08295,-0.77333c-0.00252,-0.02375 -0.00027,-0.04768 0.00648,-0.07053l1.09908,-3.68652c-0.65862,0.66789 -1.18302,1.6753 -1.41405,2.33266c-0.27304,0.77701 -0.57253,2.16164 -0.5755,2.17559c-0.01044,0.04867 -0.04066,0.09077 -0.08331,0.11641c-0.0009,0.00081 -0.49651,0.35392 -0.59475,1.94645c-0.10436,1.69068 0.24848,2.96475 0.25208,2.97752l0.50829,1.65497c0.00153,0.00495 0.00279,0.0099 0.00387,0.01493c0.00036,0.0018 0.00495,0.02303 0.01331,0.06136c0.52809,0.24137 1.75987,0.752 2.25916,0.73032c0.31505,-0.01313 0.73761,-0.64576 1.11033,-1.2038c0.29868,-0.4473 0.60761,-0.90971 0.92303,-1.16836c0.58215,-0.47744 1.33515,-0.60914 1.67197,-0.64513l0,-2.86354c0,-0.09932 0.08061,-0.17993 0.17993,-0.17993c0.09932,0 0.17993,0.08061 0.17993,0.17993l0,2.86363z M18.88863,31.04135c0.12874,0.38765 0.20386,0.52818 0.23903,0.5782c0.2877,0.40879 1.29529,0.90503 2.83736,1.39704c0.92482,0.29517 1.92054,0.37092 2.03497,0.37893c0.11443,-0.00801 1.11006,-0.08376 2.03488,-0.37893c1.54206,-0.4921 2.54966,-0.98825 2.83736,-1.39704c0.03518,-0.04993 0.11003,-0.18982 0.23894,-0.5782l-0.31154,0c-0.18263,0.48094 -0.55768,0.78565 -0.97862,0.78565c-0.60204,0 -1.09198,-0.63604 -1.09198,-1.418c0,-0.78196 0.48985,-1.41809 1.09198,-1.41809c0.42022,0 0.796,0.30516 0.97862,0.78565l0.67626,0c0.2259,-0.86113 0.44514,-1.81267 0.57163,-2.37612c-0.5486,0.23804 -1.63788,0.67716 -2.17739,0.65331c-0.49777,-0.02069 -0.93346,-0.67293 -1.39461,-1.36349c-0.2841,-0.42535 -0.57793,-0.86518 -0.85195,-1.08982c-0.63748,-0.52287 -1.54629,-0.57334 -1.62357,-0.57676c-0.07548,0.00342 -0.98834,0.0556 -1.62384,0.57676c-0.27403,0.22464 -0.56785,0.66456 -0.85195,1.08991c-0.46115,0.69047 -0.89676,1.34271 -1.39452,1.3634c-0.54239,0.02519 -1.62879,-0.41509 -2.17739,-0.65331c0.1264,0.56308 0.34555,1.51382 0.57163,2.37612l0.67626,0c0.18272,-0.48067 0.5584,-0.78565 0.97862,-0.78565c0.60204,0 1.09189,0.63613 1.09189,1.41809c0,0.78196 -0.48985,1.418 -1.09189,1.418c-0.42094,0 -0.796,-0.3048 -0.97862,-0.78565z M15.18943,22.86187l0,6.88653c0,0.5145 0.4186,0.9331 0.93319,0.9331l3.77892,0c0.14781,0 0.268,-0.12019 0.268,-0.268l0,-0.00909c0,-0.14781 -0.12019,-0.268 -0.268,-0.268l-2.94594,0c-0.4437,0 -0.80472,-0.36102 -0.80472,-0.80463l0,-6.4699c0,-0.13045 -0.10616,-0.2366 -0.23651,-0.2366l-0.48841,0c-0.13045,0 -0.23651,0.10616 -0.23651,0.2366z M28.09865,30.6815l3.77892,0c0.5145,0 0.9331,-0.4186 0.9331,-0.9331l0,-6.88653c0,-0.13045 -0.10616,-0.2366 -0.23651,-0.2366l-0.48841,0c-0.13036,0 -0.23651,0.10616 -0.23651,0.2366l0,6.46999c0,0.4437 -0.36102,0.80463 -0.80472,0.80463l-2.94585,0c-0.14781,0 -0.268,0.12019 -0.268,0.268l0,0.009c0,0.14781 0.12019,0.268 0.268,0.268z M25.62051,22.15476c0.12082,0.08807 0.26098,0.19045 0.4249,0.31082c1.08586,0.79771 2.65356,1.40244 3.06227,1.35548c0.37335,-0.04057 0.72466,-0.25523 0.76604,-1.53955c0.02843,-0.88119 -0.24551,-1.46757 -0.85375,-1.80215c-0.01322,-0.00522 -0.02582,-0.01197 -0.03733,-0.02006c-0.17525,-0.09149 -0.37722,-0.16301 -0.60644,-0.21555c-0.5342,-0.12208 -1.78623,0.10895 -3.34952,0.61886c-0.16157,0.05272 -0.27025,0.19675 -0.27052,0.35823c-0.00027,0.09329 0.01565,0.17003 0.04579,0.22239c0.11182,0.19315 0.16409,0.234 0.81858,0.71152z M18.98013,20.47937c-0.60824,0.33457 -0.88218,0.92087 -0.85375,1.80215c0.04138,1.28441 0.3926,1.49897 0.76595,1.53955c0.40843,0.04516 1.97641,-0.55786 3.06236,-1.35557c0.16382,-0.12028 0.30408,-0.22275 0.4249,-0.31082c0.65439,-0.47753 0.70666,-0.51837 0.81849,-0.71143c0.03023,-0.05227 0.04615,-0.1291 0.04597,-0.2223c-0.00018,-0.16157 -0.10895,-0.30552 -0.27052,-0.35823c-1.56339,-0.51 -2.81559,-0.74085 -3.34952,-0.61886c-0.22923,0.05254 -0.4312,0.12406 -0.60653,0.21555c-0.01152,0.00801 -0.02402,0.01475 -0.03733,0.01997z M24,31.04855c-1.107,0 -2.00754,-0.90062 -2.00754,-2.00754c0,-1.10691 0.90062,-2.00745 2.00754,-2.00745c1.10691,0 2.00745,0.90053 2.00745,2.00745c0,1.10691 -0.90044,2.00754 -2.00745,2.00754z M24,27.39333c-0.90854,0 -1.64768,0.73914 -1.64768,1.64759c0,0.90863 0.73914,1.64768 1.64768,1.64768c0.90854,0 1.64759,-0.73914 1.64759,-1.64768c0.00009,-0.90845 -0.73905,-1.64759 -1.64759,-1.64759z M19.00172,19.43894l0.06468,0.60294c0.13216,-0.05398 0.27448,-0.09959 0.42661,-0.13683l-0.08762,-0.65287c-0.00324,-0.02438 -0.00153,-0.04903 0.00522,-0.07269l1.14883,-4.07733c-0.10652,0.04363 -0.21141,0.09986 -0.31442,0.16679z M28.50699,19.90504c0.15204,0.03724 0.29436,0.08286 0.42661,0.13683l0.06468,-0.60294l-1.24321,-4.16999c-0.10301,-0.06675 -0.20809,-0.12307 -0.31442,-0.16679l1.14883,4.07733c0.00666,0.02366 0.00846,0.04831 0.00522,0.07269z M24,30.31805c-0.70414,0 -1.27703,-0.57289 -1.27703,-1.27703c0,-0.70414 0.57289,-1.27694 1.27703,-1.27694c0.70414,0 1.27694,0.5728 1.27694,1.27694c0,0.70414 -0.57271,1.27703 -1.27694,1.27703z M24,28.12384c-0.50577,0 -0.91718,0.4114 -0.91718,0.91709c0,0.50577 0.41149,0.91718 0.91718,0.91718c0.50568,0 0.91709,-0.4114 0.91709,-0.91718c0.00009,-0.50559 -0.41131,-0.91709 -0.91709,-0.91709z M27.82111,29.35085c-0.40367,0 -0.73212,0.47465 -0.73212,1.05824c0,0.58341 0.32837,1.05815 0.73212,1.05815c0.23256,0 0.4482,-0.16157 0.5853,-0.4258l-0.30786,0c-0.34618,0 -0.62786,-0.28168 -0.62786,-0.62786l0,-0.00909c0,-0.34618 0.28168,-0.62786 0.62786,-0.62786l0.30777,0c-0.1371,-0.26413 -0.3532,-0.4258 -0.58521,-0.4258z M20.17889,31.46715c0.40367,0 0.73203,-0.47465 0.73203,-1.05815c0,-0.5835 -0.32837,-1.05824 -0.73203,-1.05824c-0.23211,0 -0.44802,0.16166 -0.58521,0.4258l0.30777,0c0.34618,0 0.62786,0.28168 0.62786,0.62786l0,0.00909c0,0.34618 -0.28159,0.62786 -0.62786,0.62786l-0.30786,0c0.13701,0.26431 0.35275,0.4258 0.5853,0.4258z M15.6701,20.25419c-0.10274,0 -0.18631,0.08358 -0.18631,0.18631c0,0.10274 0.08358,0.18622 0.18631,0.18622c0.10274,0 0.18631,-0.08358 0.18631,-0.18622c0,-0.10283 -0.08358,-0.18631 -0.18631,-0.18631z M32.3299,20.25419c-0.10283,0 -0.18631,0.08358 -0.18631,0.18631c0,0.10274 0.08358,0.18622 0.18631,0.18622c0.10274,0 0.18622,-0.08358 0.18622,-0.18622c0.00009,-0.10283 -0.08349,-0.18631 -0.18622,-0.18631z" fill="#ffffff" stroke="none" stroke-width="0" stroke-miterlimit="4" font-family="&quot;Open Sans&quot;, sans-serif" font-size="14"></path></g></svg>